<svg width="530" height="265" viewBox="0 0 530 265" fill="none" xmlns="http://www.w3.org/2000/svg">
<path d="M43.4307 15.0469C45.2072 15.1962 46.9336 15.5223 48.5918 16.0078L54.0283 5.96484L51.7363 17.1533C54.0599 18.1725 56.2075 19.5182 58.1211 21.1328L70.3379 12.0684L61.2725 24.2852C62.3995 25.6207 63.3967 27.0694 64.2422 28.6133L75.1895 25.3555L65.6582 31.6445C66.559 33.9473 67.1426 36.4085 67.3584 38.9746L82.4062 41.2031L67.3584 43.4307C67.2091 45.2077 66.8821 46.9342 66.3965 48.5928L76.4414 54.0293L65.252 51.7363C64.2328 54.0599 62.8871 56.2075 61.2725 58.1211L70.3379 70.3379L58.1211 61.2725C56.7853 62.3997 55.3362 63.3976 53.792 64.2432L57.0508 75.1895L50.7607 65.6582C48.458 66.5589 45.9968 67.1427 43.4307 67.3584L41.2031 82.4062L38.9746 67.3584C37.1977 67.209 35.471 66.8832 33.8125 66.3975L28.3779 76.4414L30.6689 65.2529C28.3453 64.2337 26.1978 62.8882 24.2842 61.2734L12.0684 70.3389L21.1328 58.1221C20.0056 56.7863 19.0086 55.3371 18.1631 53.793L7.2168 57.0518L16.7471 50.7617C15.8463 48.4587 15.2625 45.9971 15.0469 43.4307L0 41.2031L15.0469 38.9746C15.1963 37.1981 15.5223 35.4717 16.0078 33.8135L5.96484 28.3779L17.1523 30.6689C18.1716 28.3454 19.5181 26.1977 21.1328 24.2842L12.0684 12.0684L24.2842 21.1328C25.6197 20.0059 27.0695 19.0095 28.6133 18.1641L25.3545 7.2168L31.6445 16.7471C33.9472 15.8465 36.4087 15.2626 38.9746 15.0469L41.2031 0L43.4307 15.0469ZM175.837 15.0469C177.613 15.1962 179.34 15.5223 180.998 16.0078L186.435 5.96484L184.143 17.1533C186.466 18.1725 188.614 19.5182 190.527 21.1328L202.744 12.0684L193.679 24.2852C194.806 25.6207 195.803 27.0694 196.648 28.6133L207.596 25.3555L198.064 31.6445C198.965 33.9473 199.549 36.4085 199.765 38.9746L214.812 41.2031L199.765 43.4307C199.615 45.2077 199.288 46.9342 198.803 48.5928L208.848 54.0293L197.658 51.7363C196.639 54.0599 195.293 56.2075 193.679 58.1211L202.744 70.3379L190.527 61.2725C189.192 62.3997 187.742 63.3976 186.198 64.2432L189.457 75.1895L183.167 65.6582C180.864 66.5589 178.403 67.1427 175.837 67.3584L173.609 82.4062L171.381 67.3584C169.604 67.209 167.877 66.8832 166.219 66.3975L160.784 76.4414L163.075 65.2529C160.752 64.2337 158.604 62.8882 156.69 61.2734L144.475 70.3389L153.539 58.1221C152.412 56.7863 151.415 55.3371 150.569 53.793L139.623 57.0518L149.153 50.7617C148.253 48.4587 147.669 45.9971 147.453 43.4307L132.406 41.2031L147.453 38.9746C147.603 37.1981 147.929 35.4717 148.414 33.8135L138.371 28.3779L149.559 30.6689C150.578 28.3454 151.924 26.1977 153.539 24.2842L144.475 12.0684L156.69 21.1328C158.026 20.0059 159.476 19.0095 161.02 18.1641L157.761 7.2168L164.051 16.7471C166.353 15.8465 168.815 15.2626 171.381 15.0469L173.609 0L175.837 15.0469ZM308.243 15.0469C310.02 15.1962 311.746 15.5223 313.404 16.0078L318.841 5.96484L316.549 17.1533C318.872 18.1725 321.02 19.5182 322.934 21.1328L335.15 12.0684L326.085 24.2852C327.212 25.6207 328.209 27.0694 329.055 28.6133L340.002 25.3555L330.471 31.6445C331.371 33.9473 331.955 36.4085 332.171 38.9746L347.219 41.2031L332.171 43.4307C332.022 45.2077 331.695 46.9342 331.209 48.5928L341.254 54.0293L330.064 51.7363C329.045 54.0599 327.7 56.2075 326.085 58.1211L335.15 70.3379L322.934 61.2725C321.598 62.3997 320.149 63.3976 318.604 64.2432L321.863 75.1895L315.573 65.6582C313.27 66.5589 310.809 67.1427 308.243 67.3584L306.016 82.4062L303.787 67.3584C302.01 67.209 300.284 66.8832 298.625 66.3975L293.19 76.4414L295.481 65.2529C293.158 64.2337 291.01 62.8882 289.097 61.2734L276.881 70.3389L285.945 58.1221C284.818 56.7863 283.821 55.3371 282.976 53.793L272.029 57.0518L281.56 50.7617C280.659 48.4587 280.075 45.9971 279.859 43.4307L264.812 41.2031L279.859 38.9746C280.009 37.1981 280.335 35.4717 280.82 33.8135L270.777 28.3779L281.965 30.6689C282.984 28.3454 284.331 26.1977 285.945 24.2842L276.881 12.0684L289.097 21.1328C290.432 20.0059 291.882 19.0095 293.426 18.1641L290.167 7.2168L296.457 16.7471C298.76 15.8465 301.221 15.2626 303.787 15.0469L306.016 0L308.243 15.0469ZM440.649 15.0469C442.426 15.1962 444.152 15.5223 445.811 16.0078L451.247 5.96484L448.955 17.1533C451.279 18.1725 453.426 19.5182 455.34 21.1328L467.557 12.0684L458.491 24.2852C459.618 25.6207 460.615 27.0694 461.461 28.6133L472.408 25.3555L462.877 31.6445C463.778 33.9473 464.361 36.4085 464.577 38.9746L479.625 41.2031L464.577 43.4307C464.428 45.2077 464.101 46.9342 463.615 48.5928L473.66 54.0293L462.471 51.7363C461.452 54.0599 460.106 56.2075 458.491 58.1211L467.557 70.3379L455.34 61.2725C454.004 62.3997 452.555 63.3976 451.011 64.2432L454.27 75.1895L447.979 65.6582C445.677 66.5589 443.216 67.1427 440.649 67.3584L438.422 82.4062L436.193 67.3584C434.416 67.209 432.69 66.8832 431.031 66.3975L425.597 76.4414L427.888 65.2529C425.564 64.2337 423.417 62.8882 421.503 61.2734L409.287 70.3389L418.352 58.1221C417.224 56.7863 416.227 55.3371 415.382 53.793L404.436 57.0518L413.966 50.7617C413.065 48.4587 412.481 45.9971 412.266 43.4307L397.219 41.2031L412.266 38.9746C412.415 37.1981 412.741 35.4717 413.227 33.8135L403.184 28.3779L414.371 30.6689C415.39 28.3454 416.737 26.1977 418.352 24.2842L409.287 12.0684L421.503 21.1328C422.838 20.0059 424.288 19.0095 425.832 18.1641L422.573 7.2168L428.863 16.7471C431.166 15.8465 433.627 15.2626 436.193 15.0469L438.422 0L440.649 15.0469ZM41.2031 18.7031C28.7769 18.7031 18.7035 28.777 18.7031 41.2031C18.7031 53.6295 28.7767 63.7031 41.2031 63.7031C53.6293 63.7028 63.7031 53.6293 63.7031 41.2031C63.7028 28.7772 53.629 18.7035 41.2031 18.7031ZM173.609 18.7031C161.183 18.7031 151.11 28.777 151.109 41.2031C151.109 53.6295 161.183 63.7031 173.609 63.7031C186.036 63.7028 196.109 53.6293 196.109 41.2031C196.109 28.7772 186.035 18.7035 173.609 18.7031ZM306.016 18.7031C293.589 18.7031 283.516 28.777 283.516 41.2031C283.516 53.6295 293.589 63.7031 306.016 63.7031C318.442 63.7028 328.516 53.6293 328.516 41.2031C328.515 28.7772 318.442 18.7035 306.016 18.7031ZM438.422 18.7031C425.996 18.7031 415.922 28.777 415.922 41.2031C415.922 53.6295 425.995 63.7031 438.422 63.7031C450.848 63.7028 460.922 53.6293 460.922 41.2031C460.922 28.7772 450.848 18.7035 438.422 18.7031ZM37.0938 43.7207L32.3613 50.1426L38.7979 45.3975L41.1729 61.2021C30.1785 61.1859 21.2645 52.2994 21.2041 41.3154L37.0938 43.7207ZM61.2012 41.3154C61.1408 52.2995 52.227 61.1861 41.2324 61.2021L43.6084 45.3867L50.0449 50.1426L45.2891 43.7061L61.2012 41.3154ZM169.5 43.7207L164.768 50.1426L171.204 45.3975L173.579 61.2021C162.585 61.1859 153.671 52.2994 153.61 41.3154L169.5 43.7207ZM193.607 41.3154C193.547 52.2995 184.633 61.1861 173.639 61.2021L176.015 45.3867L182.451 50.1426L177.695 43.7061L193.607 41.3154ZM301.906 43.7207L297.174 50.1426L303.61 45.3975L305.985 61.2021C294.991 61.1859 286.077 52.2994 286.017 41.3154L301.906 43.7207ZM326.014 41.3154C325.953 52.2995 317.039 61.1861 306.045 61.2021L308.421 45.3867L314.857 50.1426L310.102 43.7061L326.014 41.3154ZM434.312 43.7207L429.58 50.1426L436.017 45.3975L438.392 61.2021C427.397 61.1859 418.483 52.2994 418.423 41.3154L434.312 43.7207ZM458.42 41.3154C458.36 52.2995 449.446 61.1861 438.451 61.2021L440.827 45.3867L447.264 50.1426L442.508 43.7061L458.42 41.3154ZM38.7812 37.1904L32.3623 32.459L37.0928 38.8789L21.2041 41.2852C21.204 41.2579 21.2031 41.2304 21.2031 41.2031C21.2033 30.1576 30.1576 21.2031 41.2031 21.2031L38.7812 37.1904ZM41.2031 21.2031C52.2485 21.2034 61.2029 30.1578 61.2031 41.2031C61.2031 41.2304 61.2013 41.2579 61.2012 41.2852L45.29 38.8936L50.0449 32.46L43.625 37.2012L41.2031 21.2031ZM171.188 37.1904L164.769 32.459L169.499 38.8789L153.61 41.2852C153.61 41.2579 153.609 41.2304 153.609 41.2031C153.61 30.1576 162.564 21.2031 173.609 21.2031L171.188 37.1904ZM173.609 21.2031C184.655 21.2034 193.609 30.1578 193.609 41.2031C193.609 41.2304 193.608 41.2579 193.607 41.2852L177.696 38.8936L182.451 32.46L176.031 37.2012L173.609 21.2031ZM303.594 37.1904L297.175 32.459L301.905 38.8789L286.017 41.2852C286.016 41.2579 286.016 41.2304 286.016 41.2031C286.016 30.1576 294.97 21.2031 306.016 21.2031L303.594 37.1904ZM306.016 21.2031C317.061 21.2034 326.015 30.1578 326.016 41.2031C326.016 41.2304 326.014 41.2579 326.014 41.2852L310.103 38.8936L314.857 32.46L308.438 37.2012L306.016 21.2031ZM436 37.1904L429.581 32.459L434.312 38.8789L418.423 41.2852C418.423 41.2579 418.422 41.2304 418.422 41.2031C418.422 30.1576 427.376 21.2031 438.422 21.2031L436 37.1904ZM438.422 21.2031C449.467 21.2034 458.422 30.1578 458.422 41.2031C458.422 41.2304 458.42 41.2579 458.42 41.2852L442.509 38.8936L447.264 32.46L440.844 37.2012L438.422 21.2031Z" fill="black" fill-opacity="0.1"/>
<path d="M84.6338 147.453C86.4103 147.602 88.1368 147.929 89.7949 148.414L95.2314 138.371L92.9395 149.56C95.263 150.579 97.4106 151.924 99.3242 153.539L111.541 144.475L102.476 156.691C103.603 158.027 104.6 159.476 105.445 161.02L116.393 157.762L106.861 164.051C107.762 166.354 108.346 168.815 108.562 171.381L123.609 173.609L108.562 175.837C108.412 177.614 108.085 179.34 107.6 180.999L117.645 186.436L106.455 184.143C105.436 186.466 104.09 188.614 102.476 190.527L111.541 202.744L99.3242 193.679C97.9884 194.806 96.5393 195.804 94.9951 196.649L98.2539 207.596L91.9639 198.064C89.6611 198.965 87.1999 199.549 84.6338 199.765L82.4062 214.812L80.1777 199.765C78.4008 199.615 76.6742 199.289 75.0156 198.804L69.5811 208.848L71.8721 197.659C69.5485 196.64 67.4009 195.294 65.4873 193.68L53.2715 202.745L62.3359 190.528C61.2087 189.193 60.2118 187.743 59.3662 186.199L48.4199 189.458L57.9502 183.168C57.0494 180.865 56.4656 178.403 56.25 175.837L41.2031 173.609L56.25 171.381C56.3994 169.604 56.7254 167.878 57.2109 166.22L47.168 160.784L58.3555 163.075C59.3747 160.752 60.7212 158.604 62.3359 156.69L53.2715 144.475L65.4873 153.539C66.8228 152.412 68.2726 151.416 69.8164 150.57L66.5576 139.623L72.8477 149.153C75.1503 148.253 77.6118 147.669 80.1777 147.453L82.4062 132.406L84.6338 147.453ZM217.04 147.453C218.817 147.602 220.543 147.929 222.201 148.414L227.638 138.371L225.346 149.56C227.669 150.579 229.817 151.924 231.73 153.539L243.947 144.475L234.882 156.691C236.009 158.027 237.006 159.476 237.852 161.02L248.799 157.762L239.268 164.051C240.168 166.354 240.752 168.815 240.968 171.381L256.016 173.609L240.968 175.837C240.818 177.614 240.492 179.34 240.006 180.999L250.051 186.436L238.861 184.143C237.842 186.466 236.496 188.614 234.882 190.527L243.947 202.744L231.73 193.679C230.395 194.806 228.946 195.804 227.401 196.649L230.66 207.596L224.37 198.064C222.067 198.965 219.606 199.549 217.04 199.765L214.812 214.812L212.584 199.765C210.807 199.615 209.08 199.289 207.422 198.804L201.987 208.848L204.278 197.659C201.955 196.64 199.807 195.294 197.894 193.68L185.678 202.745L194.742 190.528C193.615 189.193 192.618 187.743 191.772 186.199L180.826 189.458L190.356 183.168C189.456 180.865 188.872 178.403 188.656 175.837L173.609 173.609L188.656 171.381C188.806 169.604 189.132 167.878 189.617 166.22L179.574 160.784L190.762 163.075C191.781 160.752 193.127 158.604 194.742 156.69L185.678 144.475L197.894 153.539C199.229 152.412 200.679 151.416 202.223 150.57L198.964 139.623L205.254 149.153C207.557 148.253 210.018 147.669 212.584 147.453L214.812 132.406L217.04 147.453ZM349.446 147.453C351.223 147.602 352.949 147.929 354.607 148.414L360.044 138.371L357.752 149.56C360.076 150.579 362.223 151.924 364.137 153.539L376.354 144.475L367.288 156.691C368.415 158.027 369.412 159.476 370.258 161.02L381.205 157.762L371.674 164.051C372.575 166.354 373.158 168.815 373.374 171.381L388.422 173.609L373.374 175.837C373.225 177.614 372.898 179.34 372.412 180.999L382.457 186.436L371.268 184.143C370.248 186.466 368.903 188.614 367.288 190.527L376.354 202.744L364.137 193.679C362.801 194.806 361.352 195.804 359.808 196.649L363.066 207.596L356.776 198.064C354.474 198.965 352.012 199.549 349.446 199.765L347.219 214.812L344.99 199.765C343.213 199.615 341.487 199.289 339.828 198.804L334.394 208.848L336.685 197.659C334.361 196.64 332.213 195.294 330.3 193.68L318.084 202.745L327.148 190.528C326.021 189.193 325.024 187.743 324.179 186.199L313.232 189.458L322.763 183.168C321.862 180.865 321.278 178.403 321.062 175.837L306.016 173.609L321.062 171.381C321.212 169.604 321.538 167.878 322.023 166.22L311.98 160.784L323.168 163.075C324.187 160.752 325.534 158.604 327.148 156.69L318.084 144.475L330.3 153.539C331.635 152.412 333.085 151.416 334.629 150.57L331.37 139.623L337.66 149.153C339.963 148.253 342.424 147.669 344.99 147.453L347.219 132.406L349.446 147.453ZM481.853 147.453C483.629 147.602 485.356 147.929 487.014 148.414L492.45 138.371L490.158 149.56C492.482 150.579 494.629 151.924 496.543 153.539L508.76 144.475L499.694 156.691C500.821 158.027 501.819 159.476 502.664 161.02L513.611 157.762L504.08 164.051C504.981 166.354 505.564 168.815 505.78 171.381L520.828 173.609L505.78 175.837C505.631 177.614 505.304 179.34 504.818 180.999L514.863 186.436L503.674 184.143C502.655 186.466 501.309 188.614 499.694 190.527L508.76 202.744L496.543 193.679C495.207 194.806 493.758 195.804 492.214 196.649L495.473 207.596L489.183 198.064C486.88 198.965 484.419 199.549 481.853 199.765L479.625 214.812L477.396 199.765C475.62 199.615 473.893 199.289 472.234 198.804L466.8 208.848L469.091 197.659C466.767 196.64 464.62 195.294 462.706 193.68L450.49 202.745L459.555 190.528C458.427 189.193 457.431 187.743 456.585 186.199L445.639 189.458L455.169 183.168C454.268 180.865 453.684 178.403 453.469 175.837L438.422 173.609L453.469 171.381C453.618 169.604 453.944 167.878 454.43 166.22L444.387 160.784L455.574 163.075C456.593 160.752 457.94 158.604 459.555 156.69L450.49 144.475L462.706 153.539C464.042 152.412 465.491 151.416 467.035 150.57L463.776 139.623L470.066 149.153C472.369 148.253 474.831 147.669 477.396 147.453L479.625 132.406L481.853 147.453ZM82.4062 151.109C69.98 151.109 59.9066 161.183 59.9062 173.609C59.9062 186.036 69.9798 196.109 82.4062 196.109C94.8324 196.109 104.906 186.036 104.906 173.609C104.906 161.183 94.8322 151.11 82.4062 151.109ZM214.812 151.109C202.386 151.109 192.313 161.183 192.312 173.609C192.312 186.036 202.386 196.109 214.812 196.109C227.239 196.109 237.312 186.036 237.312 173.609C237.312 161.183 227.238 151.11 214.812 151.109ZM347.219 151.109C334.793 151.109 324.719 161.183 324.719 173.609C324.719 186.036 334.792 196.109 347.219 196.109C359.645 196.109 369.719 186.036 369.719 173.609C369.718 161.183 359.645 151.11 347.219 151.109ZM479.625 151.109C467.199 151.109 457.125 161.183 457.125 173.609C457.125 186.036 467.199 196.109 479.625 196.109C492.051 196.109 502.125 186.036 502.125 173.609C502.125 161.183 492.051 151.11 479.625 151.109ZM78.2969 176.127L73.5645 182.549L80.001 177.804L82.376 193.608C71.3816 193.592 62.4676 184.706 62.4072 173.722L78.2969 176.127ZM102.404 173.722C102.344 184.706 93.4301 193.592 82.4355 193.608L84.8115 177.793L91.248 182.549L86.4922 176.112L102.404 173.722ZM210.703 176.127L205.971 182.549L212.407 177.804L214.782 193.608C203.788 193.592 194.874 184.706 194.813 173.722L210.703 176.127ZM234.811 173.722C234.75 184.706 225.836 193.592 214.842 193.608L217.218 177.793L223.654 182.549L218.898 176.112L234.811 173.722ZM343.109 176.127L338.377 182.549L344.813 177.804L347.188 193.608C336.194 193.592 327.28 184.706 327.22 173.722L343.109 176.127ZM367.217 173.722C367.156 184.706 358.243 193.592 347.248 193.608L349.624 177.793L356.061 182.549L351.305 176.112L367.217 173.722ZM475.516 176.127L470.783 182.549L477.22 177.804L479.595 193.608C468.6 193.592 459.686 184.706 459.626 173.722L475.516 176.127ZM499.623 173.722C499.563 184.706 490.649 193.592 479.654 193.608L482.03 177.793L488.467 182.549L483.711 176.112L499.623 173.722ZM79.9844 169.597L73.5654 164.865L78.2959 171.285L62.4072 173.691C62.4071 173.664 62.4062 173.637 62.4062 173.609C62.4064 162.564 71.3607 153.609 82.4062 153.609L79.9844 169.597ZM82.4062 153.609C93.4516 153.61 102.406 162.564 102.406 173.609C102.406 173.637 102.404 173.664 102.404 173.691L86.4932 171.3L91.248 164.866L84.8281 169.607L82.4062 153.609ZM212.391 169.597L205.972 164.865L210.702 171.285L194.813 173.691C194.813 173.664 194.812 173.637 194.812 173.609C194.813 162.564 203.767 153.609 214.812 153.609L212.391 169.597ZM214.812 153.609C225.858 153.61 234.812 162.564 234.812 173.609C234.812 173.637 234.811 173.664 234.811 173.691L218.899 171.3L223.654 164.866L217.234 169.607L214.812 153.609ZM344.797 169.597L338.378 164.865L343.108 171.285L327.22 173.691C327.22 173.664 327.219 173.637 327.219 173.609C327.219 162.564 336.173 153.609 347.219 153.609L344.797 169.597ZM347.219 153.609C358.264 153.61 367.219 162.564 367.219 173.609C367.219 173.637 367.217 173.664 367.217 173.691L351.306 171.3L356.061 164.866L349.641 169.607L347.219 153.609ZM477.203 169.597L470.784 164.865L475.515 171.285L459.626 173.691C459.626 173.664 459.625 173.637 459.625 173.609C459.625 162.564 468.579 153.609 479.625 153.609L477.203 169.597ZM479.625 153.609C490.67 153.61 499.625 162.564 499.625 173.609C499.625 173.637 499.623 173.664 499.623 173.691L483.712 171.3L488.467 164.866L482.047 169.607L479.625 153.609Z" fill="black" fill-opacity="0.1"/>
</svg>
