<svg width="151" height="151" viewBox="0 0 151 151" fill="none" xmlns="http://www.w3.org/2000/svg">
<path d="M120.322 0.449219C136.891 0.449219 150.322 13.8807 150.322 30.4492V120.449C150.322 136.759 137.307 150.029 121.097 150.439L120.322 150.449H30.3223L29.5479 150.439C13.5947 150.035 0.736464 137.177 0.332031 121.224L0.322266 120.449V30.4492C0.322266 13.8807 13.7538 0.449285 30.3223 0.449219H120.322ZM30.3223 15.4492C22.038 15.4493 15.3223 22.165 15.3223 30.4492V120.449C15.3225 128.733 22.0382 135.449 30.3223 135.449H120.322C128.606 135.449 135.322 128.733 135.322 120.449V30.4492C135.322 22.1649 128.607 15.4492 120.322 15.4492H30.3223ZM75.3223 35.4492C97.4137 35.4492 115.322 53.3578 115.322 75.4492C115.322 97.5404 97.4135 115.449 75.3223 115.449C53.2311 115.449 35.3225 97.5404 35.3223 75.4492C35.3223 53.3579 53.2309 35.4493 75.3223 35.4492ZM75.3223 50.4492C61.5152 50.4493 50.3223 61.6421 50.3223 75.4492C50.3225 89.2561 61.5153 100.449 75.3223 100.449C89.1293 100.449 100.322 89.2562 100.322 75.4492C100.322 61.6421 89.1294 50.4492 75.3223 50.4492ZM118.803 23.0557C124.326 23.0557 128.803 27.5328 128.803 33.0557C128.803 38.5784 124.326 43.0557 118.803 43.0557C113.28 43.0556 108.803 38.5784 108.803 33.0557C108.803 27.5329 113.28 23.0558 118.803 23.0557Z" fill="white"/>
</svg>
