<svg width="83" height="83" viewBox="0 0 83 83" fill="none" xmlns="http://www.w3.org/2000/svg">
<path d="M43.7446 15.5521C45.5213 15.7014 47.2475 16.0275 48.9058 16.5131L54.3423 6.47009L52.0503 17.6586C54.374 18.6777 56.5214 20.0233 58.4351 21.6381L70.6519 12.5736L61.5864 24.7904C62.7135 26.126 63.7107 27.5746 64.5562 29.1185L75.5034 25.8607L65.9722 32.1498C66.873 34.4526 67.4566 36.9137 67.6724 39.4799L82.7202 41.7084L67.6724 43.9359C67.523 45.7131 67.1962 47.4393 66.7104 49.098L76.7554 54.5345L65.5659 52.2416C64.5467 54.5653 63.2012 56.7126 61.5864 58.6263L70.6519 70.8431L58.4351 61.7777C57.0991 62.9051 55.6503 63.9028 54.106 64.7484L57.3647 75.6947L51.0747 66.1635C48.7718 67.0642 46.3109 67.648 43.7446 67.8636L41.5171 82.9115L39.2886 67.8636C37.5115 67.7143 35.7851 67.3885 34.1265 66.9027L28.6919 76.9467L30.9829 65.7582C28.6593 64.7389 26.5117 63.3935 24.5981 61.7787L12.3823 70.8441L21.4468 58.6273C20.3196 57.2915 19.3226 55.8424 18.4771 54.2982L7.53076 57.557L17.061 51.267C16.1602 48.9639 15.5765 46.5024 15.3608 43.9359L0.313965 41.7084L15.3608 39.4799C15.5102 37.7032 15.8362 35.977 16.3218 34.3187L6.27881 28.8832L17.4663 31.1742C18.4856 28.8505 19.8319 26.7031 21.4468 24.7894L12.3823 12.5736L24.5981 21.6381C25.9338 20.511 27.3833 19.5148 28.9272 18.6693L25.6685 7.72205L31.9585 17.2523C34.2613 16.3516 36.7225 15.7678 39.2886 15.5521L41.5171 0.505249L43.7446 15.5521ZM41.5171 19.2084C29.0908 19.2084 19.0172 29.2821 19.0171 41.7084C19.0171 54.1348 29.0907 64.2084 41.5171 64.2084C53.9434 64.2083 64.0171 54.1347 64.0171 41.7084C64.017 29.2821 53.9434 19.2084 41.5171 19.2084Z" fill="#D9D9D9"/>
<path d="M37.4077 44.226L32.6753 50.6478L39.1118 45.9027L41.4868 61.7074C30.4925 61.6911 21.5785 52.8046 21.5181 41.8207L37.4077 44.226ZM61.5151 41.8207C61.4547 52.8049 52.5412 61.6916 41.5464 61.7074L43.9224 45.892L50.3589 50.6478L45.603 44.2113L61.5151 41.8207ZM39.0952 37.6957L32.6763 32.9642L37.4067 39.3842L21.5181 41.7904C21.518 41.7631 21.5171 41.7357 21.5171 41.7084C21.5171 30.6627 30.4714 21.7084 41.5171 21.7084L39.0952 37.6957ZM41.5171 21.7084C52.5628 21.7084 61.5171 30.6627 61.5171 41.7084C61.5171 41.7357 61.5152 41.7631 61.5151 41.7904L45.604 39.3988L50.3589 32.9652L43.939 37.7064L41.5171 21.7084Z" fill="#D9D9D9"/>
</svg>
